<?xml version="1.0" standalone="no"?><!DOCTYPE svg PUBLIC "-//W3C//DTD SVG 1.1//EN" "http://www.w3.org/Graphics/SVG/1.1/DTD/svg11.dtd"><svg t="1509033622243" class="icon" style="" viewBox="0 0 1024 1024" version="1.1" xmlns="http://www.w3.org/2000/svg" p-id="1437" xmlns:xlink="http://www.w3.org/1999/xlink" width="16" height="16"><defs><style type="text/css"></style></defs><path d="M512 1024c-64 0-128-12.8-185.6-38.4-64-25.6-115.2-64-166.4-108.8-44.8-44.8-83.2-102.4-108.8-166.4-25.6-57.6-38.4-121.6-38.4-185.6s12.8-128 38.4-185.6c25.6-64 64-115.2 108.8-166.4 38.4-38.4 76.8-70.4 128-89.6l12.8 25.6C256 134.4 217.6 166.4 185.6 198.4 96 288 44.8 403.2 44.8 531.2c0 121.6 51.2 243.2 134.4 326.4 179.2 179.2 473.6 179.2 659.2 0 89.6-89.6 134.4-204.8 134.4-326.4s-51.2-243.2-134.4-326.4c-38.4-38.4-76.8-64-128-89.6l12.8-25.6c51.2 25.6 96 57.6 134.4 96 44.8 44.8 83.2 102.4 108.8 166.4 25.6 57.6 38.4 121.6 38.4 185.6s-12.8 128-38.4 185.6c-25.6 64-64 115.2-108.8 166.4-44.8 44.8-102.4 83.2-166.4 108.8C640 1011.2 576 1024 512 1024L512 1024z" p-id="1438" fill="#515151"></path><path d="M492.8 0l32 0 0 403.2L492.8 403.2 492.8 0 492.8 0z" p-id="1439" fill="#515151"></path></svg>