<?xml version="1.0" standalone="no"?><!DOCTYPE svg PUBLIC "-//W3C//DTD SVG 1.1//EN" "http://www.w3.org/Graphics/SVG/1.1/DTD/svg11.dtd"><svg t="1509069036447" class="icon" style="" viewBox="0 0 1024 1024" version="1.1" xmlns="http://www.w3.org/2000/svg" p-id="3089" xmlns:xlink="http://www.w3.org/1999/xlink" width="16" height="16"><defs><style type="text/css"></style></defs><path d="M156.097914 430.045004C148.958835 437.707616 136.959694 438.132023 129.297083 430.992944 121.634472 423.853866 121.210065 411.854725 128.349144 404.192113L499.298441 6.039867C503.359174 1.681348 508.960245-0.316925 514.433395 0.045048 524.193687 0.003413 531.383057 5.587554 533.797155 13.284808L897.996509 404.192113C905.135587 411.854725 904.711181 423.853866 897.048569 430.992944 889.385957 438.132023 877.386816 437.707616 870.247737 430.045004L534.662971 69.850687 534.662971 777.482303C534.662971 787.955223 526.172991 796.445203 515.700071 796.445203 505.22715 796.445203 496.737172 787.955223 496.737172 777.482303L496.737172 64.425536 156.097914 430.045004Z" p-id="3090" fill="#898c8f"></path><path d="M85.334756 986.0742l853.330489 0 0 37.9258-853.330489 0 0-37.9258Z" p-id="3091" fill="#898c8f"></path></svg>